<svg xmlns="http://www.w3.org/2000/svg" viewBox="0 0 220.65 79.23"><defs><style>.cls-1{fill:none;stroke:#000;stroke-miterlimit:10;}</style></defs><g id="レイヤー_2" data-name="レイヤー 2"><g id="レイヤー_1-2" data-name="レイヤー 1"><path d="M41.37,70,55.94,56.22c8.28-7.81,9.59-9.46,9.2-12.2-.43-3.09-2.56-4.26-6.6-3.69C53.8,41,49,43.7,44.47,48.25l.41-11.53a24.2,24.2,0,0,1,14.74-7.11Q75.27,27.42,77,39.76c1,7.41-2.41,13.21-12.78,21.6l-6,4.82,18.87-2.65-.39,10.69-35.67,5Z"/><path d="M0,36l.25-8.28c2.7,1.67,6.94,2.33,11.21,1.73,4.53-.63,6.65-2.35,6.27-5.07-.35-2.47-2.28-3.15-7.27-2.44a29.93,29.93,0,0,0-9.11,2.74L2.11,3.25,25.26,0,25,8,9.64,10.17l-.17,5.17a20.11,20.11,0,0,1,4.61-1.18c7.26-1,11.54,1.79,12.42,8.12,1.11,7.87-4.15,13.39-14.13,14.79C7.59,37.74,2.91,37.35,0,36Z"/><line class="cls-1" x1="55.6" y1="5.43" x2="12.97" y2="65.49"/><path d="M149.7,60.27,150.08,49a22.79,22.79,0,0,0,15.13,2.63c6.17-.87,9.22-3,8.78-6.2-.38-2.67-2.56-3.28-8.74-2.41l-7,1,.37-10.26,6.93-1c6.24-.87,8.67-2.54,8.23-5.7-.39-2.74-2.53-3.56-7.54-2.86a27.39,27.39,0,0,0-14,6.24l.41-11c3.65-2.89,8.29-4.73,14.33-5.58,11.11-1.56,17.06,1.45,18.16,9.27.79,5.62-1.56,9.8-7,12.39v.13c4.51,1.19,7,4.12,7.69,8.86,1.27,9-5.68,15.35-19,17.22C160.17,62.64,153.94,62.12,149.7,60.27Z"/><path d="M91.17,71.69l-.79.51a21.52,21.52,0,0,1-2.42-23l.88.34A20.67,20.67,0,0,0,87,60.93,20.59,20.59,0,0,0,91.17,71.69Z"/><path d="M90.94,50.12l14.94-1.57,1.91,18.23-3.25.34-.14-1.37-8.58.9L96,68l-3.11.33Zm12,1.8-8.57.9.39,3.8,8.58-.9ZM95.5,63.62l8.58-.9-.43-4-8.57.91Z"/><path d="M111.34,68.71l-.79-.3a19.74,19.74,0,0,0-2.1-20l.71-.46a19.46,19.46,0,0,1,2.18,20.73Z"/><path d="M198.45,56.45l-.79.51a21.52,21.52,0,0,1-2.42-23l.88.33a20.7,20.7,0,0,0-1.86,11.42A20.63,20.63,0,0,0,198.45,56.45Z"/><path d="M212.89,33.09l1.58,15.08a4.92,4.92,0,0,1-.11,2,2.27,2.27,0,0,1-1,1.2,5.13,5.13,0,0,1-1.76.65c-.7.15-1.67.28-2.9.41A9,9,0,0,0,208,50.9a11,11,0,0,0-.9-1.49c.72,0,1.91-.12,3.57-.29.43,0,.62-.26.58-.65L211,46.08l-8.26.87a11,11,0,0,1-2.83,6.42,9.58,9.58,0,0,0-1.24-1,8.84,8.84,0,0,0-1.33-.86A8.11,8.11,0,0,0,199,49.21a8.2,8.2,0,0,0,.74-2.62,16.84,16.84,0,0,0,.14-2.45c0-.72-.07-1.55-.16-2.49l-.75-7.09ZM210,36.36l-7.67.8.2,2,7.67-.81ZM202.93,44l7.79-.82-.2-2-7.68.81C202.88,42.64,202.91,43.3,202.93,44Z"/><path d="M218.62,53.47l-.79-.3a18.62,18.62,0,0,0,1.68-10.26,18.67,18.67,0,0,0-3.78-9.71l.71-.46a19.46,19.46,0,0,1,2.18,20.73Z"/><polygon points="121.39 40.53 122.69 52.87 134.69 45.1 121.39 40.53"/></g></g></svg>