<svg xmlns="http://www.w3.org/2000/svg" viewBox="0 0 2280 1284"><defs><style>.cls-1{fill:#fff;}.cls-2{fill:#ed9a5d;}.cls-3{fill:#ed5d64;}.cls-4{fill:#ede25d;}.cls-5{fill:#635ded;}.cls-6{fill:#5cb4ef;}.cls-7{fill:#5ded97;}.cls-8{fill:#bf5ded;}.cls-9{fill:#5ded78;}.cls-10{fill:#3072ba;}.cls-11{fill:#a2d3f2;}.cls-12{fill:#eb96b7;}.cls-13{fill:#6dc6e6;}.cls-14{fill:#34214d;}.cls-15{fill:#ee761c;}.cls-16{fill:#a5c057;}.cls-17{fill:#e73b79;}.cls-18{fill:#573c94;}.cls-19{fill:#e83718;}.cls-20{fill:#1e2c5b;}.cls-21{fill:#f49e15;}.cls-22{fill:#14983d;}.cls-23{fill:#36a9e1;}.cls-24{fill:#e83420;}.cls-25{fill:#231815;}</style></defs><g id="レイヤー_2" data-name="レイヤー 2"><g id="レイヤー_10" data-name="レイヤー 10"><circle class="cls-1" cx="177" cy="109" r="102.5"/><path d="M177,7A102,102,0,1,1,75,109,102.12,102.12,0,0,1,177,7m0-1A103,103,0,1,0,280,109,103,103,0,0,0,177,6Z"/><circle class="cls-2" cx="1398.62" cy="660.41" r="182.5"/><circle class="cls-3" cx="1296" cy="156" r="26"/><circle class="cls-4" cx="786" cy="170" r="113"/><circle class="cls-5" cx="1121" cy="347" r="87"/><circle class="cls-6" cx="1030.5" cy="751.5" r="83.5"/><circle class="cls-7" cx="1220" cy="970" r="48"/><circle class="cls-4" cx="1663" cy="943" r="96"/><circle class="cls-8" cx="1934" cy="253" r="47"/><circle class="cls-9" cx="214" cy="847" r="214"/><circle class="cls-8" cx="752" cy="535" r="166"/><circle class="cls-4" cx="1461" cy="305" r="75"/><circle class="cls-6" cx="313" cy="519" r="66"/><circle class="cls-2" cx="488" cy="305" r="66"/><circle class="cls-3" cx="725" cy="922" r="119"/><circle class="cls-5" cx="122" cy="453" r="21"/><circle class="cls-3" cx="2031" cy="634" r="249"/><circle class="cls-6" cx="1716.5" cy="119.5" r="119.5"/><circle class="cls-9" cx="1683" cy="519" r="48"/><path class="cls-10" d="M2085.07,543.16c58.33-55.4,134.49,16.91,92.78,75.8-37.57,53-138.52,100-242.72,75-95.58-22.93-68.57-88.53-20.09-84.83C1967.58,613.13,2020.11,604.93,2085.07,543.16Z"/><path class="cls-11" d="M2037.4,554.88c50.63,22,95.6,121.39,84.7,182.37-11.49,64.21-81.42,88.59-99.5,21.91-14-51.65,12.08-94.84-17.84-166.4C1993.9,566.75,2011.3,543.53,2037.4,554.88Z"/><ellipse class="cls-11" cx="1973.77" cy="524.04" rx="32.18" ry="29.77" transform="translate(519.18 1957.41) rotate(-59.45)"/><path class="cls-12" d="M683.11,934.2c-35.17-.82-36.45-46.75-5.38-52.13,28-4.84,73.78,11.78,98.34,51.68,22.53,36.61-6.08,48.6-20,32.48C741.11,948.8,722.26,935.13,683.11,934.2Z"/><path class="cls-13" d="M701.49,945.28c-8.89-22.43,7.86-67.1,30.06-82.63,23.37-16.34,52.57-2.31,37.59,23.92-11.63,20.32-33,25.67-45.85,57.06C718.64,955,706.08,956.85,701.49,945.28Z"/><ellipse class="cls-13" cx="711.69" cy="974.48" rx="14.07" ry="13.02" transform="translate(-222.01 210.07) rotate(-14.55)"/><path class="cls-14" d="M1629.89,949.64c-28-3.21-25.71-39.93-.51-42,22.7-1.84,58,14.73,74.74,48.34,15.33,30.83-8.36,38.33-18.27,24.48C1675.11,965.47,1661.06,953.21,1629.89,949.64Z"/><path class="cls-15" d="M1643.75,959.81c-5.47-18.55,11.12-53,30-63.76,19.83-11.36,42.11,1.94,28.27,21.8-10.74,15.4-28.2,18.08-40.7,42.21C1656.73,968.82,1646.59,969.4,1643.75,959.81Z"/><ellipse class="cls-15" cx="1649.79" cy="983.84" rx="11.27" ry="10.43" transform="translate(-138.33 282.13) rotate(-9.38)"/><path class="cls-16" d="M1739.57,157.31c6,37-41.8,47.4-53.54,15.9-10.59-28.39-2.2-79.61,34.76-113.22,33.91-30.81,52.11-3.2,38,14.52C1743.41,93.67,1732.82,116.11,1739.57,157.31Z"/><path class="cls-17" d="M1747.55,135.87c-21.75,13.74-71.86,5-92.5-15.19-21.73-21.28-12.79-54.62,17.65-44.1,23.58,8.16,33.39,29.53,68.83,36.78C1754.38,116,1758.77,128.78,1747.55,135.87Z"/><ellipse class="cls-17" cx="1776.12" cy="119.42" rx="13.88" ry="15" transform="translate(118.32 767.94) rotate(-25.21)"/><path class="cls-18" d="M145.18,816.73c-44.23-42.53,8.26-103.05,54.57-73.29,41.7,26.81,80.95,102.12,65.47,182.38-14.13,73.66-65.1,55.29-64,18.22C202.53,903.87,194.41,864.09,145.18,816.73Z"/><path class="cls-19" d="M155.73,852.65c15-39.32,89.22-77,136.07-70.79,49.32,6.55,70.31,59,20.12,75.07C273,869.36,239.23,851,185.71,876.23,166.28,885.39,148.05,873,155.73,852.65Z"/><ellipse class="cls-19" cx="134.42" cy="902.21" rx="22.71" ry="24.55" transform="translate(-725.45 597.78) rotate(-62.03)"/><path class="cls-20" d="M752,190.55c-33.92,4.92-42.62-39-13.62-49.19,26.12-9.21,72.79-.7,102.88,33.64,27.61,31.49,2.07,47.66-13.88,34.45C810.07,195.16,789.72,185.07,752,190.55Z"/><path class="cls-21" d="M771.42,198.2c-12.2-20.1-3.39-65.74,15.42-84.27,19.79-19.51,50.12-10.79,40,16.85-7.84,21.41-27.54,30-34.74,62.28C789.48,204.77,777.71,208.57,771.42,198.2Z"/><ellipse class="cls-21" cx="785.97" cy="224.59" rx="13.71" ry="12.68" transform="translate(-23.05 341.57) rotate(-24.17)"/><path class="cls-22" d="M1954.74,256.86c14.44,6,7.64,25.16-6.09,22.43-12.37-2.46-28.67-16.63-32.5-37.07-3.51-18.74,10.26-19.15,13.44-10.26C1933.05,241.58,1938.68,250.24,1954.74,256.86Z"/><path class="cls-21" d="M1948.89,249.35c.11,10.7-13.93,26.53-25.6,29.42-12.28,3-22.13-7.42-11.75-15.89,8-6.56,17.75-5.35,28.07-16.32C1943.35,242.58,1948.84,243.83,1948.89,249.35Z"/><ellipse class="cls-21" cx="1949.33" cy="235.63" rx="5.78" ry="6.24" transform="translate(1494.62 2145.77) rotate(-83.5)"/><circle class="cls-5" cx="962.5" cy="1093.5" r="46.5"/><circle class="cls-2" cx="1061.5" cy="1252.5" r="31.5"/><g id="レイヤー_2-2" data-name="レイヤー 2"><g id="レイヤー_1-2" data-name="レイヤー 1-2"><path class="cls-23" d="M157,111.85c-26.08-7.44-18.14-41.93,6.1-39.91C185,73.76,215.88,95,226.48,129.54c9.71,31.67-13.95,35.07-21.19,20.37C197.46,134,186.05,120.13,157,111.85Z"/><path class="cls-24" d="M168.62,123.93c-2.33-18.48,18.81-48.57,38.39-55.85,20.61-7.67,39.69,8.45,23.4,25.12-12.6,12.92-29.6,12.75-45.27,33.73C179.48,134.5,169.77,133.43,168.62,123.93Z"/><ellipse class="cls-24" cx="170.54" cy="147.66" rx="10.85" ry="10.03"/><path class="cls-25" d="M143.63,163.49h3.18l-1,5.91,5.82-5.91h4.09l-6.89,7,4.38,7.26h-3.69l-4-6.59-1.16,6.59h-3.21Z"/><path class="cls-25" d="M191.13,175.4a3.45,3.45,0,0,1,2.21-3.1,3,3,0,0,1-.67-1.87c0-1.77,1.35-2.82,3.31-2.82,1.7,0,2.7.79,2.7,2.17,0,1.16-.72,2-2.12,2.71l-.22.1,1.6,1.85a5,5,0,0,0,.77-1.94h2.16a5,5,0,0,1-1.69,3.38l1.62,1.88H198l-.52-.61a5.13,5.13,0,0,1-3,.85C192.45,178,191.13,177.13,191.13,175.4Zm5.47.3-2-2.32c-.75.44-1.09.91-1.09,1.5,0,.75.66,1.13,1.65,1.13a3.77,3.77,0,0,0,1.44-.28Zm0-6A.65.65,0,0,0,196,169h-.17a1.06,1.06,0,0,0-1.09,1v.08a1.34,1.34,0,0,0,.47.94c1.05-.5,1.37-.8,1.37-1.36Z"/><path class="cls-25" d="M155,168.75h2.1l.09,1.06a3.41,3.41,0,0,1,2.73-1.29,2.25,2.25,0,0,1,2.52,2.49,4.91,4.91,0,0,1-.09.94l-.89,5.81h-2.7l.87-5.09a1.75,1.75,0,0,0,0-.4c0-.67-.26-1-.83-1a2,2,0,0,0-1.69,1.07l-.94,5.37h-2.8Z"/><path class="cls-25" d="M163.11,173.8a5.06,5.06,0,0,1,5-5.08h.17a3.89,3.89,0,0,1,4.21,4.06,5,5,0,0,1-5,5.07h-.17A3.9,3.9,0,0,1,163.11,173.8Zm6.61-.93a1.49,1.49,0,0,0-1.34-1.64h-.25a2.32,2.32,0,0,0-2.26,2.35.66.66,0,0,0,0,.14,1.5,1.5,0,0,0,1.35,1.64,1,1,0,0,0,.24,0,2.31,2.31,0,0,0,2.26-2.35.62.62,0,0,0,0-.13Z"/><path class="cls-25" d="M173.12,173.83a5.08,5.08,0,0,1,5.06-5.11h.16a6,6,0,0,1,2.58.58l-.43,2.58a3.16,3.16,0,0,0-2-.61,2.33,2.33,0,0,0-2.6,2.35c0,1.15.67,1.69,1.93,1.69a4.4,4.4,0,0,0,2.1-.57l-.43,2.53a3.73,3.73,0,0,1-2.15.58C174.78,177.85,173.12,176.28,173.12,173.83Z"/><path class="cls-25" d="M182.88,163.49h2.78l-1.45,8.41,2.9-3.15h3.53l-4.1,4.28,2.5,4.73h-3.17l-2-4-.7,4h-2.82Z"/><path class="cls-25" d="M206.09,163.49h4.5c4.43,0,6.85,2,6.85,6.19,0,4.86-3.24,8.08-8.67,8.08H203.6Zm2.78,11.27c3.64,0,5.47-2.22,5.47-5.33,0-2.5-1.14-3.68-4.13-3.68h-1.5l-1.56,9Z"/><path class="cls-25" d="M219.07,168.75H222l-1.56,9h-2.89Zm.05-2.84a1.58,1.58,0,0,1,1.54-1.63h.13a1.44,1.44,0,0,1,1.54,1.34.92.92,0,0,1,0,.16,1.6,1.6,0,0,1-1.54,1.63h-.13a1.46,1.46,0,0,1-1.55-1.35v-.15Z"/><path class="cls-25" d="M222.49,168.75h3l.78,5.23,2.6-5.23h3l-5,9h-2.59Z"/><path class="cls-25" d="M231,173.62a4.88,4.88,0,0,1,4.7-5.06h.37c2.35,0,3.82,1.33,3.82,3.42a5.9,5.9,0,0,1-.39,2h-5.7c.16.9.94,1.42,2.3,1.42a5.07,5.07,0,0,0,2.94-1l-.41,2.42a5.27,5.27,0,0,1-3,.81C232.67,177.69,231,176.21,231,173.62Zm6.41-1.12a1.3,1.3,0,0,0-1.25-1.37,1,1,0,0,0-.25,0A1.9,1.9,0,0,0,234,172.5Z"/></g></g></g></g></svg>