<svg xmlns="http://www.w3.org/2000/svg" xmlns:xlink="http://www.w3.org/1999/xlink" viewBox="0 0 1920 1300"><defs><style>.cls-1{fill:none;}.cls-2{clip-path:url(#clip-path);}.cls-3{fill:#fff;}.cls-4{fill:#ed9a5d;}.cls-5{fill:#ed5d64;}.cls-6{fill:#ede25d;}.cls-7{fill:#635ded;}.cls-8{fill:#5cb4ef;}.cls-9{fill:#5ded97;}.cls-10{fill:#bf5ded;}.cls-11{fill:#5ded78;}.cls-12{fill:#3072ba;}.cls-13{fill:#a2d3f2;}.cls-14{fill:#eb96b7;}.cls-15{fill:#6dc6e6;}.cls-16{fill:#34214d;}.cls-17{fill:#ee761c;}.cls-18{fill:#a5c057;}.cls-19{fill:#e73b79;}.cls-20{fill:#573c94;}.cls-21{fill:#e83718;}.cls-22{fill:#1e2c5b;}.cls-23{fill:#f49e15;}.cls-24{fill:#14983d;}.cls-25{fill:#36a9e1;}.cls-26{fill:#e83420;}.cls-27{fill:#231815;}</style><clipPath id="clip-path"><rect class="cls-1" x="-1" width="1921" height="1300"/></clipPath></defs><g id="レイヤー_10" data-name="レイヤー 10"><g class="cls-2"><circle class="cls-3" cx="54" cy="55" r="102.5"/><path d="M54-47A102,102,0,1,1-48,55,102.12,102.12,0,0,1,54-47m0-1A103,103,0,1,0,157,55,103,103,0,0,0,54-48Z"/><circle class="cls-4" cx="1275.62" cy="606.41" r="182.5"/><circle class="cls-5" cx="1173" cy="102" r="26"/><circle class="cls-6" cx="663" cy="116" r="113"/><circle class="cls-7" cx="998" cy="293" r="87"/><circle class="cls-8" cx="907.5" cy="697.5" r="83.5"/><circle class="cls-9" cx="1097" cy="916" r="48"/><circle class="cls-6" cx="1540" cy="889" r="96"/><circle class="cls-10" cx="1811" cy="199" r="47"/><circle class="cls-11" cx="91" cy="793" r="214"/><circle class="cls-10" cx="629" cy="481" r="166"/><circle class="cls-6" cx="1338" cy="251" r="75"/><circle class="cls-8" cx="190" cy="465" r="66"/><circle class="cls-4" cx="365" cy="251" r="66"/><circle class="cls-5" cx="602" cy="868" r="119"/><circle class="cls-7" cx="-1" cy="399" r="21"/><circle class="cls-5" cx="1908" cy="580" r="249"/><circle class="cls-8" cx="1593.5" cy="65.5" r="119.5"/><circle class="cls-11" cx="1560" cy="465" r="48"/><path class="cls-12" d="M1962.07,489.16c58.33-55.4,134.49,16.91,92.78,75.8-37.57,53-138.52,100-242.72,75-95.58-22.93-68.57-88.53-20.09-84.83C1844.58,559.13,1897.11,550.93,1962.07,489.16Z"/><path class="cls-13" d="M1914.4,500.88c50.63,22,95.6,121.39,84.7,182.37-11.49,64.21-81.42,88.59-99.5,21.91-14-51.65,12.08-94.84-17.84-166.4C1870.9,512.75,1888.3,489.53,1914.4,500.88Z"/><ellipse class="cls-13" cx="1850.77" cy="470.04" rx="32.18" ry="29.77" transform="translate(505.2 1824.93) rotate(-59.45)"/><path class="cls-14" d="M560.11,880.2c-35.17-.82-36.45-46.75-5.38-52.13,28-4.84,73.78,11.78,98.34,51.68,22.53,36.61-6.08,48.6-20,32.48C618.11,894.8,599.26,881.13,560.11,880.2Z"/><path class="cls-15" d="M578.49,891.28c-8.89-22.43,7.86-67.1,30.06-82.63,23.37-16.34,52.57-2.31,37.59,23.92-11.63,20.32-33,25.67-45.85,57.06C595.64,901,583.08,902.85,578.49,891.28Z"/><ellipse class="cls-15" cx="588.69" cy="920.48" rx="14.07" ry="13.02" transform="translate(-212.39 177.44) rotate(-14.55)"/><path class="cls-16" d="M1506.89,895.64c-28-3.21-25.71-39.93-.51-42,22.7-1.84,58,14.73,74.74,48.34,15.33,30.83-8.36,38.33-18.27,24.48C1552.11,911.47,1538.06,899.21,1506.89,895.64Z"/><path class="cls-17" d="M1520.75,905.81c-5.47-18.55,11.12-53,30-63.76,19.83-11.36,42.11,1.94,28.27,21.8-10.74,15.4-28.2,18.08-40.7,42.21C1533.73,914.82,1523.59,915.4,1520.75,905.81Z"/><ellipse class="cls-17" cx="1526.79" cy="929.84" rx="11.27" ry="10.43" transform="translate(-131.17 261.36) rotate(-9.38)"/><path class="cls-18" d="M1616.57,103.31c6,37-41.8,47.4-53.54,15.9-10.59-28.39-2.2-79.61,34.76-113.22,33.91-30.81,52.11-3.2,38,14.52C1620.41,39.67,1609.82,62.11,1616.57,103.31Z"/><path class="cls-19" d="M1624.55,81.87c-21.75,13.74-71.86,5-92.5-15.19-21.73-21.28-12.79-54.62,17.65-44.1,23.58,8.16,33.39,29.53,68.83,36.78C1631.38,62,1635.77,74.78,1624.55,81.87Z"/><ellipse class="cls-19" cx="1653.12" cy="65.42" rx="13.88" ry="15" transform="translate(129.61 710.4) rotate(-25.21)"/><path class="cls-20" d="M22.18,762.73C-22,720.2,30.44,659.68,76.75,689.44c41.7,26.81,80.95,102.12,65.47,182.38-14.13,73.66-65.1,55.29-63.95,18.22C79.53,849.87,71.41,810.09,22.18,762.73Z"/><path class="cls-21" d="M32.73,798.65c15-39.32,89.22-77,136.07-70.79,49.32,6.55,70.31,59,20.12,75.07C150,815.36,116.23,797,62.71,822.23,43.28,831.39,25.05,819,32.73,798.65Z"/><ellipse class="cls-21" cx="11.42" cy="848.21" rx="22.71" ry="24.55" transform="translate(-743.06 460.47) rotate(-62.03)"/><path class="cls-22" d="M629,136.55c-33.92,4.92-42.62-39-13.62-49.19,26.12-9.21,72.79-.7,102.88,33.64,27.61,31.49,2.07,47.66-13.88,34.45C687.07,141.16,666.72,131.07,629,136.55Z"/><path class="cls-23" d="M648.42,144.2c-12.2-20.1-3.39-65.74,15.42-84.27,19.79-19.51,50.12-10.79,40,16.85-7.84,21.41-27.54,30-34.74,62.28C666.48,150.77,654.71,154.57,648.42,144.2Z"/><ellipse class="cls-23" cx="662.97" cy="170.59" rx="13.71" ry="12.68" transform="translate(-11.72 286.46) rotate(-24.17)"/><path class="cls-24" d="M1831.74,202.86c14.44,6,7.64,25.16-6.09,22.43-12.37-2.46-28.67-16.63-32.5-37.07-3.51-18.74,10.26-19.15,13.44-10.26C1810.05,187.58,1815.68,196.24,1831.74,202.86Z"/><path class="cls-23" d="M1825.89,195.35c.11,10.7-13.93,26.53-25.6,29.42-12.28,3-22.13-7.42-11.75-15.89,8-6.56,17.75-5.35,28.07-16.32C1820.35,188.58,1825.84,189.83,1825.89,195.35Z"/><ellipse class="cls-23" cx="1826.33" cy="181.63" rx="5.78" ry="6.24" transform="translate(1439.2 1975.67) rotate(-83.5)"/><circle class="cls-7" cx="839.5" cy="1039.5" r="46.5"/><circle class="cls-4" cx="938.5" cy="1198.5" r="31.5"/><g id="レイヤー_2" data-name="レイヤー 2"><g id="レイヤー_1-2" data-name="レイヤー 1-2"><path class="cls-25" d="M34,57.85c-26.08-7.44-18.14-41.93,6.1-39.91C62,19.76,92.88,41,103.48,75.54c9.71,31.67-14,35.07-21.19,20.37C74.46,80,63.05,66.13,34,57.85Z"/><path class="cls-26" d="M45.62,69.93C43.29,51.45,64.43,21.36,84,14.08c20.61-7.67,39.69,8.45,23.4,25.12C94.81,52.12,77.81,52,62.14,72.93,56.48,80.5,46.77,79.43,45.62,69.93Z"/><ellipse class="cls-26" cx="47.54" cy="93.66" rx="10.85" ry="10.03"/><path class="cls-27" d="M20.63,109.49h3.18l-1,5.91,5.82-5.91h4.09l-6.89,7,4.38,7.26H26.49l-4-6.59-1.16,6.59H18.15Z"/><path class="cls-27" d="M68.13,121.4a3.45,3.45,0,0,1,2.21-3.1,3,3,0,0,1-.67-1.87c0-1.77,1.35-2.82,3.31-2.82,1.7,0,2.7.79,2.7,2.17,0,1.16-.72,2-2.12,2.71l-.22.1,1.6,1.85a5,5,0,0,0,.77-1.94h2.16a5,5,0,0,1-1.69,3.38l1.62,1.88H75l-.52-.61a5.13,5.13,0,0,1-3,.85C69.45,124,68.13,123.13,68.13,121.4Zm5.47.3-2-2.32c-.75.44-1.09.91-1.09,1.5,0,.75.66,1.13,1.65,1.13a3.77,3.77,0,0,0,1.44-.28Zm0-6A.65.65,0,0,0,73,115h-.17a1.06,1.06,0,0,0-1.09,1v.08a1.34,1.34,0,0,0,.47.94c1-.5,1.37-.8,1.37-1.36Z"/><path class="cls-27" d="M32,114.75h2.1l.09,1.06A3.41,3.41,0,0,1,37,114.52,2.25,2.25,0,0,1,39.47,117a4.91,4.91,0,0,1-.09.94l-.89,5.81h-2.7l.87-5.09a1.75,1.75,0,0,0,0-.4c0-.67-.26-1-.83-1a2,2,0,0,0-1.69,1.07l-.94,5.37h-2.8Z"/><path class="cls-27" d="M40.11,119.8a5.06,5.06,0,0,1,5-5.08h.17a3.89,3.89,0,0,1,4.21,4.06,5,5,0,0,1-5,5.07h-.17A3.9,3.9,0,0,1,40.11,119.8Zm6.61-.93a1.49,1.49,0,0,0-1.34-1.64h-.25a2.32,2.32,0,0,0-2.26,2.35.66.66,0,0,0,0,.14,1.5,1.5,0,0,0,1.35,1.64,1,1,0,0,0,.24,0A2.31,2.31,0,0,0,46.73,119a.62.62,0,0,0,0-.13Z"/><path class="cls-27" d="M50.12,119.83a5.08,5.08,0,0,1,5.06-5.11h.16a6,6,0,0,1,2.58.58l-.43,2.58a3.16,3.16,0,0,0-2-.61,2.33,2.33,0,0,0-2.6,2.35c0,1.15.67,1.69,1.93,1.69a4.4,4.4,0,0,0,2.1-.57l-.43,2.53a3.73,3.73,0,0,1-2.15.58C51.78,123.85,50.12,122.28,50.12,119.83Z"/><path class="cls-27" d="M59.88,109.49h2.78l-1.45,8.41,2.9-3.15h3.53L63.54,119l2.5,4.73H62.87l-2-4-.7,4H57.36Z"/><path class="cls-27" d="M83.09,109.49h4.5c4.43,0,6.85,2,6.85,6.19,0,4.86-3.24,8.08-8.67,8.08H80.6Zm2.78,11.27c3.64,0,5.47-2.22,5.47-5.33,0-2.5-1.14-3.68-4.13-3.68h-1.5l-1.56,9Z"/><path class="cls-27" d="M96.07,114.75H99l-1.56,9H94.51Zm.05-2.84a1.58,1.58,0,0,1,1.54-1.63.29.29,0,0,1,.13,0,1.44,1.44,0,0,1,1.54,1.34.92.92,0,0,1,0,.16,1.6,1.6,0,0,1-1.54,1.63h-.13a1.46,1.46,0,0,1-1.55-1.35v-.15Z"/><path class="cls-27" d="M99.49,114.75h3l.78,5.23,2.6-5.23h3l-5,9h-2.59Z"/><path class="cls-27" d="M108,119.62a4.88,4.88,0,0,1,4.7-5.06h.37c2.35,0,3.82,1.33,3.82,3.42a5.9,5.9,0,0,1-.39,2h-5.7c.16.9.94,1.42,2.3,1.42a5.07,5.07,0,0,0,2.94-1l-.41,2.42a5.27,5.27,0,0,1-3,.81C109.67,123.69,108,122.21,108,119.62Zm6.41-1.12a1.3,1.3,0,0,0-1.25-1.37,1,1,0,0,0-.25,0A1.9,1.9,0,0,0,111,118.5Z"/></g></g></g></g></svg>