<svg xmlns="http://www.w3.org/2000/svg" viewBox="0 0 280.6 360.59"><defs><style>.cls-1{fill:#fff;}</style></defs><g id="レイヤー_2" data-name="レイヤー 2"><g id="レイヤー_13" data-name="レイヤー 13"><g id="イベント予約アイコン"><path class="cls-1" d="M277.83,60.31a35.13,35.13,0,0,0-32.37-21.42H214.7v-5H170.93a28.31,28.31,0,0,0,.31-4.14C171.24,13.36,157.2,0,140,0s-31.3,13.36-31.3,29.79a28.31,28.31,0,0,0,.31,4.14H65.19v5h-30A35.1,35.1,0,0,0,0,74V325.52a35.09,35.09,0,0,0,35.14,35.07H245.46a35.09,35.09,0,0,0,35.14-35.07V74A34.71,34.71,0,0,0,277.83,60.31ZM151.54,27.87a11.62,11.62,0,0,1-.8,5.35H129.2a11.48,11.48,0,0,1-.86-4.35,11.62,11.62,0,0,1,23.2-1Zm107.8,297.26a14,14,0,0,1-1.12,5.52,14.21,14.21,0,0,1-13.12,8.69H34.79a14.23,14.23,0,0,1-14.24-14.21V73.66a14,14,0,0,1,1.12-5.53,14.21,14.21,0,0,1,13.12-8.69h30.4v4.35A14.78,14.78,0,0,0,80,78.57H199.91A14.79,14.79,0,0,0,214.7,63.78V59.44h30.4a14,14,0,0,1,5.54,1.12,14.3,14.3,0,0,1,6.28,5.15,14,14,0,0,1,2.42,8Z"/><rect class="cls-1" x="68.73" y="118.96" width="22.67" height="22.67"/><rect class="cls-1" x="118.33" y="118.96" width="92.12" height="22.67"/><rect class="cls-1" x="68.73" y="184.86" width="22.67" height="22.67"/><rect class="cls-1" x="118.33" y="184.86" width="92.12" height="22.67"/><rect class="cls-1" x="68.73" y="250.76" width="22.67" height="22.67"/><rect class="cls-1" x="118.33" y="250.76" width="92.12" height="22.67"/></g></g></g></svg>