<svg xmlns="http://www.w3.org/2000/svg" viewBox="0 0 366.72 56.22"><defs><style>.cls-1{fill:#eaeaea;}</style></defs><g id="レイヤー_2" data-name="レイヤー 2"><g id="レイヤー_4" data-name="レイヤー 4"><path class="cls-1" d="M0,22.8C0,10.74,8.52,2.28,21.24,2.28c4,0,8.1.84,10.56,2.4v8.94a17.43,17.43,0,0,0-9.9-2.94C14,10.68,9.24,15.3,9.24,22.8S14,34.92,21.9,34.92A17.43,17.43,0,0,0,31.8,32v8.94c-2.46,1.56-6.54,2.4-10.56,2.4C8.52,43.32,0,34.86,0,22.8Z"/><path class="cls-1" d="M35.16,29.52c0-8.1,5.88-13.8,14.16-13.8s14.16,5.7,14.16,13.8-5.88,13.8-14.16,13.8S35.16,37.62,35.16,29.52Zm19.8,0c0-3.84-2.16-6.24-5.64-6.24s-5.64,2.4-5.64,6.24,2.16,6.24,5.64,6.24S55,33.36,55,29.52Z"/><path class="cls-1" d="M68.7,16.44h6.12l1,3.66a9.32,9.32,0,0,1,8.34-4.38c5.88,0,9.06,3.6,9.06,10.44V42.6h-8.4V27.48c0-2.64-1.08-4-3.3-4-2,0-3.42,1.14-4.38,3.24V42.6H68.7Z"/><path class="cls-1" d="M98,29.52c0-8,5.82-13.8,14.22-13.8a14.7,14.7,0,0,1,7.2,1.74v7.8a10.79,10.79,0,0,0-6.12-1.86c-4.26,0-6.78,2.22-6.78,6.12s2.46,6.12,6.78,6.12a11.29,11.29,0,0,0,6.12-1.74v7.68a14,14,0,0,1-7.14,1.74C103.86,43.32,98,37.56,98,29.52Z"/><path class="cls-1" d="M139.38,36.48a13.26,13.26,0,0,0,8.52-2.94v7.32a17.52,17.52,0,0,1-9.42,2.46c-9.66,0-15.54-5.22-15.54-14,0-8.28,5.34-13.62,13.62-13.62,8,0,12.84,4.86,12.84,12.42a26.8,26.8,0,0,1-.36,4H131.82C132.66,35,135.24,36.48,139.38,36.48ZM131.7,26.7h10.08a5.14,5.14,0,0,0-10.08,0Z"/><path class="cls-1" d="M154.56,16.44h6.12l.9,3.48a9.77,9.77,0,0,1,8.46-4.2c7.32,0,12.24,5.46,12.24,13.8s-5,13.8-12.06,13.8A9.19,9.19,0,0,1,163,40.26v16h-8.4Zm19.2,13.08c0-3.9-2.16-6.24-5.7-6.24a5.83,5.83,0,0,0-5.1,2.64v7.14a5.91,5.91,0,0,0,5.16,2.7C171.6,35.76,173.76,33.36,173.76,29.52Z"/><path class="cls-1" d="M188.58,34.38v-11h-4v-6.9h4.2l.12-4.86L197,7.44v9h6.6v6.9H197v9.12c0,2.22,1.08,3.3,3.18,3.3a7.06,7.06,0,0,0,3.42-1v7.26A11,11,0,0,1,198,43.32C191.7,43.32,188.58,40.32,188.58,34.38Z"/><path class="cls-1" d="M221.82,3h9.54l9.18,26.4L249.66,3h9.12L244.56,42.6H236Z"/><path class="cls-1" d="M261,7a4.92,4.92,0,0,1,9.84,0A4.92,4.92,0,0,1,261,7Zm.72,9.42h8.4V42.6h-8.4Z"/><path class="cls-1" d="M275.34,29.52c0-8.4,5-13.8,12.06-13.8a9.19,9.19,0,0,1,7.26,3.06V0h8.4V42.6h-6.12l-.9-3.48a9.77,9.77,0,0,1-8.46,4.2C280.26,43.32,275.34,37.86,275.34,29.52Zm19.32,3.6V26a5.91,5.91,0,0,0-5.16-2.7c-3.48,0-5.64,2.4-5.64,6.24s2.16,6.24,5.7,6.24A5.83,5.83,0,0,0,294.66,33.12Z"/><path class="cls-1" d="M324.72,36.48a13.28,13.28,0,0,0,8.52-2.94v7.32a17.52,17.52,0,0,1-9.42,2.46c-9.66,0-15.54-5.22-15.54-14,0-8.28,5.34-13.62,13.62-13.62,8,0,12.84,4.86,12.84,12.42a26.8,26.8,0,0,1-.36,4H317.16C318,35,320.58,36.48,324.72,36.48ZM317,26.7h10.08a5.14,5.14,0,0,0-10.08,0Z"/><path class="cls-1" d="M338.4,29.52c0-8.1,5.88-13.8,14.16-13.8s14.16,5.7,14.16,13.8-5.89,13.8-14.16,13.8S338.4,37.62,338.4,29.52Zm19.8,0c0-3.84-2.16-6.24-5.64-6.24s-5.64,2.4-5.64,6.24,2.16,6.24,5.64,6.24S358.2,33.36,358.2,29.52Z"/></g></g></svg>