<svg xmlns="http://www.w3.org/2000/svg" viewBox="0 0 223 223"><defs><style>.cls-1{fill:none;}.cls-2{fill:#ce1312;fill-rule:evenodd;}</style></defs><g id="レイヤー_2" data-name="レイヤー 2"><g id="レイヤー_4" data-name="レイヤー 4"><g id="_4_stroke" data-name="4 stroke"><g id="Youtube"><rect class="cls-1" width="223" height="223"/><path id="Youtube-2" data-name="Youtube" class="cls-2" d="M220.77,65.43S218.59,50,211.91,43.14c-8.49-9-18-9-22.35-9.51-31.2-2.27-78-2.27-78-2.27h-.1s-46.81,0-78,2.27c-4.37.52-13.86.56-22.35,9.51C4.4,50,2.23,65.43,2.23,65.43A342.2,342.2,0,0,0,0,101.78v17a342,342,0,0,0,2.23,36.35s2.17,15.47,8.86,22.29c8.49,8.94,19.63,8.66,24.59,9.6,17.84,1.72,75.82,2.26,75.82,2.26s46.86-.07,78.06-2.35c4.36-.52,13.86-.56,22.35-9.51,6.68-6.82,8.86-22.29,8.86-22.29A342,342,0,0,0,223,118.82v-17A342.2,342.2,0,0,0,220.77,65.43ZM88.85,139.76V76.66l60.26,31.66Z"/></g></g></g></g></svg>