<svg xmlns="http://www.w3.org/2000/svg" viewBox="0 0 353.67 284.41"><defs><style>.cls-1{fill:#fff;}</style></defs><g id="レイヤー_2" data-name="レイヤー 2"><g id="レイヤー_13" data-name="レイヤー 13"><path class="cls-1" d="M352.72,40.49a49.92,49.92,0,0,0-10.45-22,42.48,42.48,0,0,0-3.44-3.78A50.74,50.74,0,0,0,303,0H49.07A48.45,48.45,0,0,0,14.38,14.73a42.85,42.85,0,0,0-3.33,3.78A50,50,0,0,0,1,40.49a49.6,49.6,0,0,0-1,9.78V234.15a50.89,50.89,0,0,0,4.07,20,49,49,0,0,0,10.31,15.57c1.1,1.13,2.19,2.16,3.38,3.18a48.29,48.29,0,0,0,31.31,11.55H303a50.49,50.49,0,0,0,32.32-11.59,41.21,41.21,0,0,0,3.49-3.14,50.1,50.1,0,0,0,10.69-15.57v0a49.41,49.41,0,0,0,4.15-19.92V50.27A51.15,51.15,0,0,0,352.72,40.49ZM31.84,32.67a23.39,23.39,0,0,1,16.93-7.2H304.32a23.31,23.31,0,0,1,16.93,7.2,23.61,23.61,0,0,1,2.15,2.57L189.46,154.81a19.19,19.19,0,0,1-12.91,4.95,19.41,19.41,0,0,1-12.92-4.95L29.74,35.19A18.22,18.22,0,0,1,31.84,32.67ZM24.87,234v-172l96.93,86.61L24.92,235.06A7.32,7.32,0,0,1,24.87,234Zm279.45,24.25H48.77A23.2,23.2,0,0,1,36.91,255l102.21-91.24,9.55,8.5a41.71,41.71,0,0,0,55.81,0l9.53-8.5L316.19,255A23.26,23.26,0,0,1,304.32,258.24ZM328.11,234a7.32,7.32,0,0,1-.05,1.07L231.18,148.6,328.11,62Z"/></g></g></svg>