<svg xmlns="http://www.w3.org/2000/svg" viewBox="0 0 395.07 307.88"><defs><style>.cls-1{fill:#fff;}</style></defs><g id="レイヤー_2" data-name="レイヤー 2"><g id="レイヤー_13" data-name="レイヤー 13"><g id="学校アイコン"><path class="cls-1" d="M279.33,103.93V0H115V103.4L0,103.64V307.88H162.81V233.8h69.45v74.08H395.07V104.17ZM81,268.52H50.16V234.57H81Zm0-85.65H50.16v-34H81Zm132,0H182.1v-34H213ZM197.54,96.1a38.22,38.22,0,1,1,38.21-38.23A38.26,38.26,0,0,1,197.54,96.1ZM344.92,268.52H314.05V234.57h30.87Zm0-85.65H314.05v-34h30.87Z"/><path class="cls-1" d="M197.54,28.39A29.49,29.49,0,1,0,227,57.87,29.52,29.52,0,0,0,197.54,28.39Zm6.17,31.11A4.8,4.8,0,0,1,200.36,64a5.5,5.5,0,0,1-2.89.84H181.82a5.09,5.09,0,0,1-5.13-6.16,5.2,5.2,0,0,1,5.11-3.87h11.88V39a5,5,0,0,1,10,0V59.5Z"/></g></g></g></svg>