<svg id="レイヤー_1" data-name="レイヤー 1" xmlns="http://www.w3.org/2000/svg" viewBox="0 0 288.94 69.22"><defs><style>.cls-1{fill:#231815;}</style></defs><path class="cls-1" d="M13.86,16H23L20.06,33,36.75,16H48.48L28.71,36.1,41.3,56.93H30.61L19.2,38,15.88,56.93H6.74Z"/><path class="cls-1" d="M147.62,50.11c0-4,2.21-7,6.72-9.43a8.94,8.94,0,0,1-2-5.66c0-5.38,4.09-8.55,10-8.55,5.15,0,8.18,2.39,8.18,6.67,0,3.54-2.07,6.16-6.44,8.23l-.64.32,4.83,5.62a15.24,15.24,0,0,0,2.35-5.89h6.62c-.83,4.65-2.07,7.68-5.15,10.26l4.92,5.7H168.6L167,55.54a15.7,15.7,0,0,1-9,2.39C151.63,57.93,147.62,55.36,147.62,50.11Zm15.78,1.2-5.84-6.76c-2.16,1.29-3.17,2.67-3.17,4.28,0,2.2,1.93,3.31,4.83,3.31A10.79,10.79,0,0,0,163.4,51.31Zm.69-17.39a1.89,1.89,0,0,0-2.16-2.07,3.11,3.11,0,0,0-3.17,3.27c0,.92.32,1.56,1.38,2.76C163.17,36.4,164.09,35.53,164.09,33.92Z"/><path class="cls-1" d="M46.17,32.51h5.66l.28,3.13a10.07,10.07,0,0,1,8.06-3.8c4.87,0,7.45,2.57,7.45,7.33a15.82,15.82,0,0,1-.28,2.8l-2.63,15H56.87l2.46-14a5.89,5.89,0,0,0,.11-1.12c0-1.9-.72-2.68-2.35-2.68-2,0-3.53,1.06-4.76,3L49.7,56.92H41.86Z"/><path class="cls-1" d="M69.07,46.17A14.27,14.27,0,0,1,83.75,31.84c7,0,11.87,4.36,11.87,11.42A14.27,14.27,0,0,1,81,57.6C74,57.6,69.07,53.23,69.07,46.17Zm18.65-2.63c0-3-1.68-4.65-4.48-4.65-4,0-6.27,3.47-6.27,7,0,3,1.68,4.65,4.48,4.65C85.48,50.54,87.72,47.07,87.72,43.54Z"/><path class="cls-1" d="M97.24,46.23A14.32,14.32,0,0,1,112,31.84a17.06,17.06,0,0,1,7.28,1.62L118,40.74A8.81,8.81,0,0,0,112.53,39c-4.48,0-7.34,2.64-7.34,6.67,0,3.25,1.91,4.76,5.44,4.76a12.08,12.08,0,0,0,5.93-1.63L115.33,56a10.62,10.62,0,0,1-6,1.63C102,57.6,97.24,53.17,97.24,46.23Z"/><path class="cls-1" d="M124.85,17.16h7.84l-4.31,24.53,8.4-9.18h9.57L135.26,44.1,142,56.92h-8.85l-5.54-11.14-2,11.14h-7.84Z"/><path class="cls-1" d="M190.17,16h12.89c12.71,0,19.66,5.64,19.66,17.73,0,13.95-9.3,23.18-24.86,23.18H183Zm8.24,32.67c9.86,0,14.76-6,14.76-14.45,0-6.76-3.1-10-11.22-10h-4l-4.34,24.43Z"/><path class="cls-1" d="M227.08,32.51h7.84l-4.31,24.41h-7.84Zm.89-8.68a4.47,4.47,0,0,1,4.71-4.59,4.1,4.1,0,0,1,4.37,4.31,4.47,4.47,0,0,1-4.71,4.59A4.1,4.1,0,0,1,228,23.83Z"/><path class="cls-1" d="M237.16,32.51h8.12l2.13,14.17,7.05-14.17h8.12L249.14,56.92h-7Z"/><path class="cls-1" d="M260.68,46.12c0-8.07,5.71-14.28,14.28-14.28,6.66,0,10.8,3.75,10.8,9.63a16.25,16.25,0,0,1-1.12,5.71H268.57c.45,2.58,2.63,4,6.5,4a14.39,14.39,0,0,0,8.29-2.74l-1.18,6.83a14.69,14.69,0,0,1-8.34,2.3C265.38,57.6,260.68,53.4,260.68,46.12Zm18.08-4c-.11-2.4-1.51-3.86-4.14-3.86a5.37,5.37,0,0,0-5.32,3.86Z"/></svg>