<svg xmlns="http://www.w3.org/2000/svg" viewBox="0 0 629.82 148.82"><defs><style>.cls-1{fill:#0d0d0d;}.cls-2{fill:#231815;}</style></defs><g id="レイヤー_2" data-name="レイヤー 2"><g id="レイヤー_1-2" data-name="レイヤー 1"><g id="type"><path id="パス_21" data-name="パス 21" class="cls-1" d="M4.76,53.85,25.55,51.3l-2,39.44,33.2-43.28,26.62-3.27L44.1,95.37l34.42,43.81-24.27,3L23,102.34l-2.17,43.92L0,148.82Z"/><path id="パス_22" data-name="パス 22" class="cls-1" d="M318.18,94c-1.11-9.09,3.07-16.52,12.62-23.3a20.57,20.57,0,0,1-6.12-12.3c-1.51-12.22,6.9-20.56,20.33-22.21,11.7-1.44,19.27,3.14,20.47,12.87,1,8-3,14.57-12.34,20.49l-1.39.91,12.54,11.42a34,34,0,0,0,3.7-14L383,66c-.57,10.79-2.56,18-8.84,24.74L387,102.35l-19.11,2.35L363.77,101a36,36,0,0,1-19.78,8C329.45,110.68,319.65,106,318.18,94Zm36.19-1.68L339.22,78.62c-4.57,3.54-6.48,7-6,10.61.62,5,5.31,7,11.9,6.18a24.84,24.84,0,0,0,9.29-3.06Zm-3.28-39.7a4.34,4.34,0,0,0-4.39-4.27,4.52,4.52,0,0,0-1.15.18,7.14,7.14,0,0,0-6.38,7.83c0,.16,0,.32.07.48.26,2.09,1.16,3.45,3.91,5.89,6.54-4.22,8.38-6.45,7.93-10.11Z"/><path id="パス_23" data-name="パス 23" class="cls-2" d="M82.77,82.35l12.86-1.58,1.51,7a23,23,0,0,1,17.25-10.88c11.08-1.36,17.64,3.76,19,14.57a33.82,33.82,0,0,1,.14,6.44l-1.79,34.81L114,134.92l1.69-32.5a13.8,13.8,0,0,0,0-2.57c-.53-4.32-2.41-5.89-6.11-5.43-4.55.55-7.7,3.39-10,8.14l-2,34.26L79.79,139Z"/><path id="パス_24" data-name="パス 24" class="cls-2" d="M138.63,107a32.64,32.64,0,0,1,28.22-36.53l1.11-.12c15.9-2,28.18,6.59,30.15,22.63a32.67,32.67,0,0,1-28.24,36.56c-.38.05-.77.09-1.15.12C152.81,131.61,140.6,123,138.63,107Zm41.64-11.18c-.84-6.81-5.12-10.1-11.48-9.31-9.09,1.11-13.29,9.63-12.31,17.65.84,6.82,5.11,10.1,11.48,9.32C177.13,112.34,181.25,103.83,180.27,95.81Z"/><path id="パス_25" data-name="パス 25" class="cls-2" d="M202.64,99.27a32.77,32.77,0,0,1,28.3-36.68l1.13-.12a38.83,38.83,0,0,1,17,1.65L248.3,81a20.13,20.13,0,0,0-13-2.42c-10.18,1.25-15.91,8-14.79,17.2.91,7.38,5.64,10.28,13.66,9.3a27.77,27.77,0,0,0,13-5.36l-.8,16.7a24.32,24.32,0,0,1-13.18,5.38C216.61,123.77,204.58,115,202.64,99.27Z"/><path id="パス_26" data-name="パス 26" class="cls-2" d="M257.24,25.52l17.81-2.18L272.1,80.27l16.52-23.2,21.77-2.67-22,29.42,18.95,27.24-20.08,2.46L271.58,89.76l-1.43,25.87-17.81,2.19Z"/><path id="パス_27" data-name="パス 27" class="cls-1" d="M405.32,4.67l29.3-3.6c28.88-3.55,46.22,7.33,49.59,34.8,3.89,31.69-14.66,55.25-50,59.59l-33.81,4.15Zm27.85,71.92c22.38-2.75,31.84-17.75,29.48-36.95-1.88-15.35-9.83-21.85-28.28-19.58l-9.09,1.11-3,56.71Z"/><path id="パス_28" data-name="パス 28" class="cls-2" d="M493.78,31.88l17.81-2.19-3,56.66-17.82,2.19Zm-.38-20A10.23,10.23,0,0,1,502,.26c.27,0,.55-.07.82-.09a9.38,9.38,0,0,1,11,7.45,10.74,10.74,0,0,1,.15,1.12,10.23,10.23,0,0,1-8.59,11.65q-.4.06-.81.09a9.38,9.38,0,0,1-11-7.45,8.37,8.37,0,0,1-.15-1.12Z"/><path id="パス_29" data-name="パス 29" class="cls-2" d="M516.68,29.07l18.45-2.27,8.79,31.6,12-34.14L574.31,22,550.73,81.18l-15.91,1.95Z"/><path id="パス_30" data-name="パス 30" class="cls-2" d="M573.91,53.43c-2.25-18.34,9-34,28.46-36.43,15.13-1.86,25.6,5.51,27.24,18.86a37.66,37.66,0,0,1-1,13.29l-36.51,4.48c1.72,5.74,7.09,8.36,15.86,7.28a33,33,0,0,0,18.08-8.54l-.78,15.85A33.56,33.56,0,0,1,607,75.77C587.79,78.2,575.94,70,573.91,53.43Zm40-14.14c-.92-5.42-4.51-8.35-10.5-7.61a12.29,12.29,0,0,0-11,10.25Z"/></g></g></g></svg>