<svg xmlns="http://www.w3.org/2000/svg" viewBox="0 0 279.06 41.69"><defs><style>.cls-1{fill:#fff;}</style></defs><g id="レイヤー_2" data-name="レイヤー 2"><g id="レイヤー_1-2" data-name="レイヤー 1"><polygon class="cls-1" points="7.13 0 16.29 0 13.34 17.03 30.06 0 41.81 0 22.01 20.13 34.62 41 23.91 41 12.48 22.04 9.16 41 0 41 7.13 0"/><path class="cls-1" d="M140.88,33.71c0-4,2.21-7,6.74-9.45a8.92,8.92,0,0,1-2-5.68c0-5.39,4.1-8.57,10-8.57,5.16,0,8.2,2.4,8.2,6.69,0,3.55-2.08,6.17-6.46,8.25l-.64.32,4.84,5.63a15.39,15.39,0,0,0,2.36-5.9h6.63c-.83,4.66-2.07,7.7-5.16,10.29L170.34,41h-8.43l-1.6-1.84a15.78,15.78,0,0,1-9,2.39C144.9,41.55,140.88,39,140.88,33.71Zm15.82,1.65-5.84-6.76c-2.16,1.29-3.17,2.67-3.17,4.28,0,2.2,1.93,3.31,4.83,3.31A10.75,10.75,0,0,0,156.7,35.36ZM157.39,18a1.89,1.89,0,0,0-1.68-2.08,2.57,2.57,0,0,0-.48,0,3.12,3.12,0,0,0-3.18,3,1.62,1.62,0,0,0,0,.22c0,.92.32,1.56,1.38,2.76C156.47,20.45,157.39,19.58,157.39,18Z"/><path class="cls-1" d="M39.43,17H45.6l.26,2.94a9.48,9.48,0,0,1,7.58-3.57c4.58,0,7,2.42,7,6.89a13.74,13.74,0,0,1-.26,2.64L57.71,40H50.17l2.46-13a7,7,0,0,0,.11-1.12c0-1.9-.72-2.68-2.35-2.68-2,0-3.53,1.06-4.76,3L43,41H35.19Z"/><path class="cls-1" d="M62.37,30.22a14.26,14.26,0,0,1,14.2-14.33h.48c7,0,11.87,4.36,11.87,11.42a14.28,14.28,0,0,1-14.2,14.35H74.3C67.3,41.65,62.37,37.28,62.37,30.22ZM81,27.59c0-3-1.68-4.65-4.48-4.65-4,0-6.27,3.47-6.27,7,0,3,1.68,4.65,4.48,4.65C78.78,34.59,81,31.12,81,27.59Z"/><path class="cls-1" d="M90.54,30.28a14.3,14.3,0,0,1,14.24-14.39h.52a17.15,17.15,0,0,1,7.28,1.62l-1.28,7.28a8.9,8.9,0,0,0-5.47-1.74c-4.48,0-7.34,2.64-7.34,6.67,0,3.25,1.91,4.76,5.44,4.76a12,12,0,0,0,5.93-1.63l-1.23,7.2a10.63,10.63,0,0,1-6,1.63C95.3,41.65,90.54,37.22,90.54,30.28Z"/><polygon class="cls-1" points="118.14 1 125.98 1 121.77 24.97 129.98 16 139.78 16 128.42 27.87 135.32 41 126.49 41 120.92 29.79 118.91 41 111.02 41 118.14 1"/><path class="cls-1" d="M183.44,0h12.92c12.73,0,19.7,5.65,19.7,17.77,0,14-9.32,23.23-24.92,23.23H176.25Zm8.35,32c9.69,0,14.5-5.89,14.5-14.2,0-6.64-3-9.82-11-9.82h-3.93l-4.26,24Z"/><path class="cls-1" d="M220.41,17h7.7l-4.23,24h-7.71Zm.86-9a4.46,4.46,0,0,1,4.34-4.59,2.28,2.28,0,0,1,.37,0,4.1,4.1,0,0,1,4.36,3.81c0,.17,0,.34,0,.5A4.47,4.47,0,0,1,226,12.31h-.36a4.1,4.1,0,0,1-4.34-3.85,3.53,3.53,0,0,1,0-.46Z"/><polygon class="cls-1" points="230.67 17 238.65 17 240.75 30.93 247.68 17 255.66 17 242.45 41 235.57 41 230.67 17"/><path class="cls-1" d="M254,29.94c0-8.07,5.71-14.28,14.28-14.28,6.66,0,10.8,3.75,10.8,9.63A16.39,16.39,0,0,1,277.94,31H261.87c.45,2.58,2.63,4,6.5,4a14.39,14.39,0,0,0,8.29-2.74l-1.18,6.83a14.67,14.67,0,0,1-8.34,2.3C258.68,41.42,254,37.22,254,29.94ZM272.06,26c-.11-2.4-1.51-3.86-4.14-3.86A5.35,5.35,0,0,0,262.6,26Z"/></g></g></svg>