<svg xmlns="http://www.w3.org/2000/svg" viewBox="0 0 326.73 36.63"><g id="レイヤー_2" data-name="レイヤー 2"><g id="レイヤー_1-2" data-name="レイヤー 1"><path d="M36,3.12V7.31H30.62a17.77,17.77,0,0,1,1.26,2.08l-3.79,1.45H33V21.26H21.23v1.53H35.14c0,.84-.06,1.47-.11,1.89a50.87,50.87,0,0,1-.59,5.81,5.73,5.73,0,0,1-1.12,2.76,4.74,4.74,0,0,1-3.19,1.52,32.67,32.67,0,0,1-4.86.15,9.62,9.62,0,0,0-1.56-5,24.67,24.67,0,0,0,3.64.15,2,2,0,0,0,1.3-.34,4.64,4.64,0,0,0,.67-2.41H21.23v9.17H15.81V29.76A32.81,32.81,0,0,1,4.9,36.22a17.94,17.94,0,0,0-3.45-4.34A35,35,0,0,0,11.5,27.31H8.94L8.76,28l-5.57-.59A79.8,79.8,0,0,0,5.83,16.81h10V15.29H4.68v-4l-.19.22A24.27,24.27,0,0,0,0,8.57a18.44,18.44,0,0,0,3.49-3.8A23.89,23.89,0,0,0,6.12,0l5.12,1.41q-.11.26-.78,1.71h7.65V6.38A18.72,18.72,0,0,0,21.89,0l5.2,1.34c-.15.39-.4,1-.74,1.78ZM5.12,10.84H9.65A30.1,30.1,0,0,0,7.9,7.38,29,29,0,0,1,5.12,10.84Zm10.69,12V21.26H10.43l-.34,1.53ZM11.36,10.84h9.05a21.43,21.43,0,0,0-4.16-2.75,9.79,9.79,0,0,0,.93-.78H13.47a11.47,11.47,0,0,1,1,2.08Zm9.76,0h5.82a25,25,0,0,0-2.15-3.53h-.85A28,28,0,0,1,21.12,10.84Zm6.42,6V15.29H21.23v1.52Z"/><path d="M53.19,32.88H46.36a51.86,51.86,0,0,1,2-12.3,36.21,36.21,0,0,1,5.36-10.34H41.5V4.6H60.87V8.72a35.45,35.45,0,0,0-3.27,4.51,31.67,31.67,0,0,0-2.11,4.12,20.79,20.79,0,0,0-1.28,4.56c-.31,1.75-.54,3.38-.67,4.9S53.28,30.36,53.19,32.88Z"/><path d="M75.42,33.4a13.54,13.54,0,0,1-9.87-3.9l3.08-4.27a8.44,8.44,0,0,0,5.79,2.71,4.49,4.49,0,0,0,3.28-1.13,4.35,4.35,0,0,0,1.17-3.28,4.43,4.43,0,0,0-1.13-3.23,4,4,0,0,0-3-1.15,5.56,5.56,0,0,0-1.92.28,11.8,11.8,0,0,0-2,1.09l-3-1.93.7-14H84.4v5.64H74.31L73.9,15a7.93,7.93,0,0,1,2.93-.59,9,9,0,0,1,6.31,2.28q2.49,2.28,2.49,6.66a9.41,9.41,0,0,1-3,7.31A10.33,10.33,0,0,1,75.42,33.4Z"/><path d="M92.09,1.52h33.07v35h-6v-2H97.81v2H92.09Zm5.72,27.8h21.33V7.2H97.81Zm2.63-18.48h16v15h-16ZM110.91,21V15.62h-5.27V21Z"/><path d="M138.71,14.51l-3.19,4.08a24.72,24.72,0,0,0-5.42-4l3-3.71A24.14,24.14,0,0,1,138.71,14.51Zm-4.31,6.75,4.31,2.49q-1.76,6.87-3.53,12.1l-4.78-2.41A110.37,110.37,0,0,0,134.4,21.26Zm32.21,8.58v4.6H158.3v1.93h-4.67V15.25l-.38.45-.7-1.41V20h-4.49v.86h4.16v3.75H148a6.71,6.71,0,0,1,0,.89h4.72v3.93h-3.3l3.67,2.75-3.3,3.63a52.58,52.58,0,0,0-3.71-3.89,12.89,12.89,0,0,1-4.72,4.64,14.14,14.14,0,0,0-1.39-2,10.67,10.67,0,0,0-1.61-1.71,10.93,10.93,0,0,0,3.78-3.45H139V25.46h4.41a8.32,8.32,0,0,0,.08-.89h-3.94V20.82h4V20h-4.23V11.88h4.23v-1h-2.33V6.53h-2.49V5.75l-2.75,3.08A24.14,24.14,0,0,0,131,4.64l3.26-3.53a27.7,27.7,0,0,1,4.38,3.08V2.63h2.49V.45H145V2.63h1.81V.45h4V2.63h2.23v3.9h-2.23v4.34h-2.78v1h3l-.25-.34a21.87,21.87,0,0,0,2.83-5.14A33.61,33.61,0,0,0,155.52.33l4.75,1.27a56.41,56.41,0,0,1-2.15,5.93H160a44.78,44.78,0,0,0,1.89-6.45l4.61,1.18c-.57,1.51-1.27,3.27-2.08,5.27h1.78v4.6h-2.08V15h1.52v4.42h-1.52v2.89h1.52v4.42h-1.52v3.08ZM142.86,15.21v1.42h1.08V15.21Zm4-8.68H145V7.76h1.81Zm1.9,10.1V15.21h-1.15v1.42Zm11.13-4.5H158.3V15h1.56Zm0,10.21V19.45H158.3v2.89Zm-1.56,4.42v3.08h1.56V26.76Z"/><path d="M185.1,21.6l-3,4c-.22-.59-.78-1.89-1.67-3.89V36.48h-5.08V24.12a28.46,28.46,0,0,1-3,5.94A23.53,23.53,0,0,0,170,25,33.34,33.34,0,0,0,175,13.17H171V8.05h4.42V.37h5.08V8.05h3.86v5.12h-3.86v1.34A74.6,74.6,0,0,1,185.1,21.6Zm21.67-3.42-4.67,2.68c0-.05-.07-.14-.13-.26a2.7,2.7,0,0,1-.13-.3,33.74,33.74,0,0,1-3.23,6.49,22.61,22.61,0,0,0,8.27,4.86A19.75,19.75,0,0,0,203,36.59,25,25,0,0,1,195,31.13a25.88,25.88,0,0,1-9.31,5.46,19.12,19.12,0,0,0-2.75-4.38A20.9,20.9,0,0,0,191.74,27a40.46,40.46,0,0,1-3.45-6.83c-.07.07-.19.18-.35.31l-.43.37-.33.32a21.69,21.69,0,0,0-3.75-3.6,19.28,19.28,0,0,0,5.42-7h-4v-5h7.79V.37h5.42V5.53h8v5.05h-4.79A30.09,30.09,0,0,1,206.77,18.18Zm-16.84.23,2.7-.75a23.21,23.21,0,0,0,2.42,4.83,19.91,19.91,0,0,0,1.85-5.09l3.82.75a41.21,41.21,0,0,0-4-5.42l3.86-2.15H189.15l4.67,2A34.34,34.34,0,0,1,189.93,18.41Z"/><path d="M245.93,11.58h-5.34a40.66,40.66,0,0,1-7.83,13.36,36.07,36.07,0,0,0,14,6,18.18,18.18,0,0,0-2.15,2.58,23.06,23.06,0,0,0-1.85,3A37.56,37.56,0,0,1,228,29.35a43.46,43.46,0,0,1-14.51,7.28A19.24,19.24,0,0,0,212,34a26.48,26.48,0,0,0-2-2.71,38.93,38.93,0,0,0,13.8-6.09,47.14,47.14,0,0,1-7.6-13.58h-5.35V6.16h14.59V.37h5.71V6.16h14.77Zm-11.87,0H222.4a31.85,31.85,0,0,0,6,9.5A30.7,30.7,0,0,0,234.06,11.58Z"/><path d="M259.37.85l5.49,1.82a60.9,60.9,0,0,1-3.74,7.5V36.4h-5.57V18.07a37.33,37.33,0,0,1-3.08,3.27A31.26,31.26,0,0,0,251,18.29a29,29,0,0,0-1.7-2.89A35.73,35.73,0,0,0,255,8.91,40.41,40.41,0,0,0,259.37.85ZM274.66,31h4.49a1.62,1.62,0,0,0,1.67-1.23,25.7,25.7,0,0,0,.63-5.3,13.45,13.45,0,0,0,5.12,2.3q-.44,5.19-1.89,7.27c-1,1.38-2.62,2.08-5,2.08h-5.79q-3.93,0-5.34-1.65c-.95-1.11-1.41-3.16-1.41-6.18V1.41h5.6V13.84a72.35,72.35,0,0,0,8.61-6l4.08,4.86a87.92,87.92,0,0,1-12.69,6.91v8.75a4.77,4.77,0,0,0,.31,2.23C273.29,30.84,273.82,31,274.66,31Z"/><path d="M322.28,2.26l3.53,2.45a46.48,46.48,0,0,1-6.16,8.65,21.06,21.06,0,0,0,7.08,3.6,16.6,16.6,0,0,0-3.41,4.64l-.74-.26v4.53H311v5.45a6.83,6.83,0,0,1-.5,2.91,3.23,3.23,0,0,1-1.84,1.54q-1.89.78-6.68.71a16,16,0,0,0-1.78-4.86c1,.05,2.51.07,4.41.07a1.29,1.29,0,0,0,.62-.11c.11-.07.16-.22.16-.45V25.87H293.67V21.49l-1.23.44a15.16,15.16,0,0,0-2.89-4.3,22.28,22.28,0,0,0,6.53-3.12c-1.06-1-1.85-1.69-2.37-2.12-.45.35-.78.6-1,.75a13.08,13.08,0,0,0-1.57-2,10.45,10.45,0,0,0-1.8-1.61A20.74,20.74,0,0,0,297.57.45l5.12.89-.34.66q-.23.45-.33.63h2.86l.89-.18,2.11.82-.22-.8c-.1-.36-.17-.63-.22-.8l4.71-.93a34.8,34.8,0,0,0,1.41,4.31V2.56h7.64Zm-25.75,24,5.49,1.6a23.34,23.34,0,0,1-3.3,4.64,24.14,24.14,0,0,1-4.16,3.71,28.51,28.51,0,0,0-4.49-3.6,17.16,17.16,0,0,0,3.77-2.8A14.29,14.29,0,0,0,296.53,26.27Zm-1.6-5.38h26.68a21.23,21.23,0,0,1-6.31-4.12v1.75H301.09V17A25.85,25.85,0,0,1,294.93,20.89Zm2.41-11.76-.44.48c-.2.22-.35.39-.45.48a30.92,30.92,0,0,1,2.56,2l.49-.52c.22-.25.38-.42.48-.52A26,26,0,0,0,297.34,9.13ZM303,6.2h-3.19l-.26.33c.5.27,1.33.81,2.49,1.6A13.43,13.43,0,0,0,303,6.2Zm1.41,7.42h8.17a33.38,33.38,0,0,1-4-8A26.81,26.81,0,0,1,304.39,13.62Zm9,15.33,4.6-2.68a41.36,41.36,0,0,1,7.35,7l-4.94,3A38.76,38.76,0,0,0,313.41,29ZM318.2,7h-3.71a21.94,21.94,0,0,0,1.78,2.82C317.16,8.6,317.8,7.66,318.2,7Z"/></g></g></svg>