<svg xmlns="http://www.w3.org/2000/svg" viewBox="0 0 301.66 301.66"><defs><style>.cls-1{fill:#171717;}</style></defs><g id="レイヤー_2" data-name="レイヤー 2"><g id="レイヤー_1-2" data-name="レイヤー 1"><g id="グループ_7" data-name="グループ 7"><circle id="楕円形_26" data-name="楕円形 26" class="cls-1" cx="4" cy="40.19" r="4"/><circle id="楕円形_27" data-name="楕円形 27" class="cls-1" cx="23.81" cy="37.4" r="4"/><circle id="楕円形_28" data-name="楕円形 28" class="cls-1" cx="43.61" cy="34.62" r="4"/><circle id="楕円形_29" data-name="楕円形 29" class="cls-1" cx="63.42" cy="31.84" r="4"/><circle id="楕円形_30" data-name="楕円形 30" class="cls-1" cx="83.22" cy="29.05" r="4"/><circle id="楕円形_31" data-name="楕円形 31" class="cls-1" cx="103.03" cy="26.27" r="4"/><circle id="楕円形_32" data-name="楕円形 32" class="cls-1" cx="122.83" cy="23.48" r="4"/><circle id="楕円形_33" data-name="楕円形 33" class="cls-1" cx="142.64" cy="20.7" r="4"/><circle id="楕円形_34" data-name="楕円形 34" class="cls-1" cx="162.44" cy="17.92" r="4"/><circle id="楕円形_35" data-name="楕円形 35" class="cls-1" cx="182.25" cy="15.13" r="4"/><circle id="楕円形_36" data-name="楕円形 36" class="cls-1" cx="202.05" cy="12.35" r="4"/><circle id="楕円形_37" data-name="楕円形 37" class="cls-1" cx="221.86" cy="9.57" r="4"/><circle id="楕円形_38" data-name="楕円形 38" class="cls-1" cx="241.66" cy="6.78" r="4"/><circle id="楕円形_39" data-name="楕円形 39" class="cls-1" cx="261.47" cy="4" r="4"/><circle id="楕円形_40" data-name="楕円形 40" class="cls-1" cx="6.78" cy="59.99" r="4"/><circle id="楕円形_41" data-name="楕円形 41" class="cls-1" cx="26.59" cy="57.21" r="4"/><circle id="楕円形_42" data-name="楕円形 42" class="cls-1" cx="46.39" cy="54.42" r="4"/><circle id="楕円形_43" data-name="楕円形 43" class="cls-1" cx="66.2" cy="51.64" r="4"/><circle id="楕円形_44" data-name="楕円形 44" class="cls-1" cx="86.01" cy="48.86" r="4"/><circle id="楕円形_45" data-name="楕円形 45" class="cls-1" cx="105.81" cy="46.07" r="4"/><circle id="楕円形_46" data-name="楕円形 46" class="cls-1" cx="125.62" cy="43.29" r="4"/><circle id="楕円形_47" data-name="楕円形 47" class="cls-1" cx="145.42" cy="40.51" r="4"/><circle id="楕円形_48" data-name="楕円形 48" class="cls-1" cx="165.23" cy="37.72" r="4"/><circle id="楕円形_49" data-name="楕円形 49" class="cls-1" cx="185.03" cy="34.94" r="4"/><circle id="楕円形_50" data-name="楕円形 50" class="cls-1" cx="204.84" cy="32.16" r="4"/><circle id="楕円形_51" data-name="楕円形 51" class="cls-1" cx="224.64" cy="29.37" r="4"/><circle id="楕円形_52" data-name="楕円形 52" class="cls-1" cx="244.45" cy="26.59" r="4"/><circle id="楕円形_53" data-name="楕円形 53" class="cls-1" cx="264.25" cy="23.81" r="4"/><circle id="楕円形_54" data-name="楕円形 54" class="cls-1" cx="9.57" cy="79.8" r="4"/><circle id="楕円形_55" data-name="楕円形 55" class="cls-1" cx="29.37" cy="77.01" r="4"/><circle id="楕円形_56" data-name="楕円形 56" class="cls-1" cx="49.18" cy="74.23" r="4"/><circle id="楕円形_57" data-name="楕円形 57" class="cls-1" cx="68.98" cy="71.45" r="4"/><circle id="楕円形_58" data-name="楕円形 58" class="cls-1" cx="88.79" cy="68.66" r="4"/><circle id="楕円形_59" data-name="楕円形 59" class="cls-1" cx="108.59" cy="65.88" r="4"/><circle id="楕円形_60" data-name="楕円形 60" class="cls-1" cx="128.4" cy="63.1" r="4"/><circle id="楕円形_61" data-name="楕円形 61" class="cls-1" cx="148.2" cy="60.31" r="4"/><circle id="楕円形_62" data-name="楕円形 62" class="cls-1" cx="168.01" cy="57.53" r="4"/><circle id="楕円形_63" data-name="楕円形 63" class="cls-1" cx="187.82" cy="54.75" r="4"/><circle id="楕円形_64" data-name="楕円形 64" class="cls-1" cx="207.62" cy="51.96" r="4"/><circle id="楕円形_65" data-name="楕円形 65" class="cls-1" cx="227.43" cy="49.18" r="4"/><circle id="楕円形_66" data-name="楕円形 66" class="cls-1" cx="247.23" cy="46.39" r="4"/><circle id="楕円形_67" data-name="楕円形 67" class="cls-1" cx="267.04" cy="43.61" r="4"/><circle id="楕円形_68" data-name="楕円形 68" class="cls-1" cx="12.35" cy="99.6" r="4"/><circle id="楕円形_69" data-name="楕円形 69" class="cls-1" cx="32.16" cy="96.82" r="4"/><circle id="楕円形_70" data-name="楕円形 70" class="cls-1" cx="51.96" cy="94.03" r="4"/><circle id="楕円形_71" data-name="楕円形 71" class="cls-1" cx="71.77" cy="91.25" r="4"/><circle id="楕円形_72" data-name="楕円形 72" class="cls-1" cx="91.57" cy="88.47" r="4"/><circle id="楕円形_73" data-name="楕円形 73" class="cls-1" cx="111.38" cy="85.68" r="4"/><circle id="楕円形_74" data-name="楕円形 74" class="cls-1" cx="131.18" cy="82.9" r="4"/><circle id="楕円形_75" data-name="楕円形 75" class="cls-1" cx="150.99" cy="80.12" r="4"/><circle id="楕円形_76" data-name="楕円形 76" class="cls-1" cx="170.79" cy="77.33" r="4"/><circle id="楕円形_77" data-name="楕円形 77" class="cls-1" cx="190.6" cy="74.55" r="4"/><circle id="楕円形_78" data-name="楕円形 78" class="cls-1" cx="210.4" cy="71.77" r="4"/><circle id="楕円形_79" data-name="楕円形 79" class="cls-1" cx="230.21" cy="68.98" r="4"/><circle id="楕円形_80" data-name="楕円形 80" class="cls-1" cx="250.02" cy="66.2" r="4"/><circle id="楕円形_81" data-name="楕円形 81" class="cls-1" cx="269.82" cy="63.42" r="4"/><circle id="楕円形_82" data-name="楕円形 82" class="cls-1" cx="15.13" cy="119.41" r="4"/><circle id="楕円形_83" data-name="楕円形 83" class="cls-1" cx="34.94" cy="116.62" r="4"/><circle id="楕円形_84" data-name="楕円形 84" class="cls-1" cx="54.75" cy="113.84" r="4"/><circle id="楕円形_85" data-name="楕円形 85" class="cls-1" cx="74.55" cy="111.06" r="4"/><circle id="楕円形_86" data-name="楕円形 86" class="cls-1" cx="94.36" cy="108.27" r="4"/><circle id="楕円形_87" data-name="楕円形 87" class="cls-1" cx="114.16" cy="105.49" r="4"/><circle id="楕円形_88" data-name="楕円形 88" class="cls-1" cx="133.97" cy="102.71" r="4"/><circle id="楕円形_89" data-name="楕円形 89" class="cls-1" cx="153.77" cy="99.92" r="4"/><circle id="楕円形_90" data-name="楕円形 90" class="cls-1" cx="173.58" cy="97.14" r="4"/><circle id="楕円形_91" data-name="楕円形 91" class="cls-1" cx="193.38" cy="94.36" r="4"/><circle id="楕円形_92" data-name="楕円形 92" class="cls-1" cx="213.19" cy="91.57" r="4"/><circle id="楕円形_93" data-name="楕円形 93" class="cls-1" cx="232.99" cy="88.79" r="4"/><circle id="楕円形_94" data-name="楕円形 94" class="cls-1" cx="252.8" cy="86.01" r="4"/><circle id="楕円形_95" data-name="楕円形 95" class="cls-1" cx="272.6" cy="83.22" r="4"/><circle id="楕円形_96" data-name="楕円形 96" class="cls-1" cx="17.92" cy="139.21" r="4"/><circle id="楕円形_97" data-name="楕円形 97" class="cls-1" cx="37.72" cy="136.43" r="4"/><circle id="楕円形_98" data-name="楕円形 98" class="cls-1" cx="57.53" cy="133.65" r="4"/><circle id="楕円形_99" data-name="楕円形 99" class="cls-1" cx="77.33" cy="130.86" r="4"/><circle id="楕円形_100" data-name="楕円形 100" class="cls-1" cx="97.14" cy="128.08" r="4"/><circle id="楕円形_101" data-name="楕円形 101" class="cls-1" cx="116.94" cy="125.29" r="4"/><circle id="楕円形_102" data-name="楕円形 102" class="cls-1" cx="136.75" cy="122.51" r="4"/><circle id="楕円形_103" data-name="楕円形 103" class="cls-1" cx="156.56" cy="119.73" r="4"/><circle id="楕円形_104" data-name="楕円形 104" class="cls-1" cx="176.36" cy="116.94" r="4"/><circle id="楕円形_105" data-name="楕円形 105" class="cls-1" cx="196.17" cy="114.16" r="4"/><circle id="楕円形_106" data-name="楕円形 106" class="cls-1" cx="215.97" cy="111.38" r="4"/><circle id="楕円形_107" data-name="楕円形 107" class="cls-1" cx="235.78" cy="108.59" r="4"/><circle id="楕円形_108" data-name="楕円形 108" class="cls-1" cx="255.58" cy="105.81" r="4"/><circle id="楕円形_109" data-name="楕円形 109" class="cls-1" cx="275.39" cy="103.03" r="4"/><circle id="楕円形_110" data-name="楕円形 110" class="cls-1" cx="20.7" cy="159.02" r="4"/><circle id="楕円形_111" data-name="楕円形 111" class="cls-1" cx="40.51" cy="156.23" r="4"/><circle id="楕円形_112" data-name="楕円形 112" class="cls-1" cx="60.31" cy="153.45" r="4"/><circle id="楕円形_113" data-name="楕円形 113" class="cls-1" cx="80.12" cy="150.67" r="4"/><circle id="楕円形_114" data-name="楕円形 114" class="cls-1" cx="99.92" cy="147.88" r="4"/><circle id="楕円形_115" data-name="楕円形 115" class="cls-1" cx="119.73" cy="145.1" r="4"/><circle id="楕円形_116" data-name="楕円形 116" class="cls-1" cx="139.53" cy="142.32" r="4"/><circle id="楕円形_117" data-name="楕円形 117" class="cls-1" cx="159.34" cy="139.53" r="4"/><circle id="楕円形_118" data-name="楕円形 118" class="cls-1" cx="179.14" cy="136.75" r="4"/><circle id="楕円形_119" data-name="楕円形 119" class="cls-1" cx="198.95" cy="133.97" r="4"/><circle id="楕円形_120" data-name="楕円形 120" class="cls-1" cx="218.75" cy="131.18" r="4"/><circle id="楕円形_121" data-name="楕円形 121" class="cls-1" cx="238.56" cy="128.4" r="4"/><circle id="楕円形_122" data-name="楕円形 122" class="cls-1" cx="258.37" cy="125.62" r="4"/><circle id="楕円形_123" data-name="楕円形 123" class="cls-1" cx="278.17" cy="122.83" r="4"/><circle id="楕円形_124" data-name="楕円形 124" class="cls-1" cx="23.48" cy="178.82" r="4"/><circle id="楕円形_125" data-name="楕円形 125" class="cls-1" cx="43.29" cy="176.04" r="4"/><circle id="楕円形_126" data-name="楕円形 126" class="cls-1" cx="63.1" cy="173.26" r="4"/><circle id="楕円形_127" data-name="楕円形 127" class="cls-1" cx="82.9" cy="170.47" r="4"/><circle id="楕円形_128" data-name="楕円形 128" class="cls-1" cx="102.71" cy="167.69" r="4"/><circle id="楕円形_129" data-name="楕円形 129" class="cls-1" cx="122.51" cy="164.91" r="4"/><circle id="楕円形_130" data-name="楕円形 130" class="cls-1" cx="142.32" cy="162.12" r="4"/><circle id="楕円形_131" data-name="楕円形 131" class="cls-1" cx="162.12" cy="159.34" r="4"/><circle id="楕円形_132" data-name="楕円形 132" class="cls-1" cx="181.93" cy="156.56" r="4"/><circle id="楕円形_133" data-name="楕円形 133" class="cls-1" cx="201.73" cy="153.77" r="4"/><circle id="楕円形_134" data-name="楕円形 134" class="cls-1" cx="221.54" cy="150.99" r="4"/><circle id="楕円形_135" data-name="楕円形 135" class="cls-1" cx="241.34" cy="148.2" r="4"/><circle id="楕円形_136" data-name="楕円形 136" class="cls-1" cx="261.15" cy="145.42" r="4"/><circle id="楕円形_137" data-name="楕円形 137" class="cls-1" cx="280.95" cy="142.64" r="4"/><circle id="楕円形_138" data-name="楕円形 138" class="cls-1" cx="26.27" cy="198.63" r="4"/><circle id="楕円形_139" data-name="楕円形 139" class="cls-1" cx="46.07" cy="195.84" r="4"/><circle id="楕円形_140" data-name="楕円形 140" class="cls-1" cx="65.88" cy="193.06" r="4"/><circle id="楕円形_141" data-name="楕円形 141" class="cls-1" cx="85.68" cy="190.28" r="4"/><circle id="楕円形_142" data-name="楕円形 142" class="cls-1" cx="105.49" cy="187.49" r="4"/><circle id="楕円形_143" data-name="楕円形 143" class="cls-1" cx="125.3" cy="184.71" r="4"/><circle id="楕円形_144" data-name="楕円形 144" class="cls-1" cx="145.1" cy="181.93" r="4"/><circle id="楕円形_145" data-name="楕円形 145" class="cls-1" cx="164.91" cy="179.14" r="4"/><circle id="楕円形_146" data-name="楕円形 146" class="cls-1" cx="184.71" cy="176.36" r="4"/><circle id="楕円形_147" data-name="楕円形 147" class="cls-1" cx="204.52" cy="173.58" r="4"/><circle id="楕円形_148" data-name="楕円形 148" class="cls-1" cx="224.32" cy="170.79" r="4"/><circle id="楕円形_149" data-name="楕円形 149" class="cls-1" cx="244.13" cy="168.01" r="4"/><circle id="楕円形_150" data-name="楕円形 150" class="cls-1" cx="263.93" cy="165.23" r="4"/><circle id="楕円形_151" data-name="楕円形 151" class="cls-1" cx="283.74" cy="162.44" r="4"/><circle id="楕円形_152" data-name="楕円形 152" class="cls-1" cx="29.05" cy="218.43" r="4"/><circle id="楕円形_153" data-name="楕円形 153" class="cls-1" cx="48.86" cy="215.65" r="4"/><circle id="楕円形_154" data-name="楕円形 154" class="cls-1" cx="68.66" cy="212.87" r="4"/><circle id="楕円形_155" data-name="楕円形 155" class="cls-1" cx="88.47" cy="210.08" r="4"/><circle id="楕円形_156" data-name="楕円形 156" class="cls-1" cx="108.27" cy="207.3" r="4"/><circle id="楕円形_157" data-name="楕円形 157" class="cls-1" cx="128.08" cy="204.52" r="4"/><circle id="楕円形_158" data-name="楕円形 158" class="cls-1" cx="147.88" cy="201.73" r="4"/><circle id="楕円形_159" data-name="楕円形 159" class="cls-1" cx="167.69" cy="198.95" r="4"/><circle id="楕円形_160" data-name="楕円形 160" class="cls-1" cx="187.49" cy="196.17" r="4"/><circle id="楕円形_161" data-name="楕円形 161" class="cls-1" cx="207.3" cy="193.38" r="4"/><circle id="楕円形_162" data-name="楕円形 162" class="cls-1" cx="227.11" cy="190.6" r="4"/><circle id="楕円形_163" data-name="楕円形 163" class="cls-1" cx="246.91" cy="187.82" r="4"/><circle id="楕円形_164" data-name="楕円形 164" class="cls-1" cx="266.72" cy="185.03" r="4"/><circle id="楕円形_165" data-name="楕円形 165" class="cls-1" cx="286.52" cy="182.25" r="4"/><circle id="楕円形_166" data-name="楕円形 166" class="cls-1" cx="31.84" cy="238.24" r="4"/><circle id="楕円形_167" data-name="楕円形 167" class="cls-1" cx="51.64" cy="235.46" r="4"/><circle id="楕円形_168" data-name="楕円形 168" class="cls-1" cx="71.45" cy="232.67" r="4"/><circle id="楕円形_169" data-name="楕円形 169" class="cls-1" cx="91.25" cy="229.89" r="4"/><circle id="楕円形_170" data-name="楕円形 170" class="cls-1" cx="111.06" cy="227.11" r="4"/><circle id="楕円形_171" data-name="楕円形 171" class="cls-1" cx="130.86" cy="224.32" r="4"/><circle id="楕円形_172" data-name="楕円形 172" class="cls-1" cx="150.67" cy="221.54" r="4"/><circle id="楕円形_173" data-name="楕円形 173" class="cls-1" cx="170.47" cy="218.75" r="4"/><circle id="楕円形_174" data-name="楕円形 174" class="cls-1" cx="190.28" cy="215.97" r="4"/><circle id="楕円形_175" data-name="楕円形 175" class="cls-1" cx="210.08" cy="213.19" r="4"/><circle id="楕円形_176" data-name="楕円形 176" class="cls-1" cx="229.89" cy="210.4" r="4"/><circle id="楕円形_177" data-name="楕円形 177" class="cls-1" cx="249.69" cy="207.62" r="4"/><circle id="楕円形_178" data-name="楕円形 178" class="cls-1" cx="269.5" cy="204.84" r="4"/><circle id="楕円形_179" data-name="楕円形 179" class="cls-1" cx="289.3" cy="202.05" r="4"/><circle id="楕円形_180" data-name="楕円形 180" class="cls-1" cx="34.62" cy="258.04" r="4"/><circle id="楕円形_181" data-name="楕円形 181" class="cls-1" cx="54.42" cy="255.26" r="4"/><circle id="楕円形_182" data-name="楕円形 182" class="cls-1" cx="74.23" cy="252.48" r="4"/><circle id="楕円形_183" data-name="楕円形 183" class="cls-1" cx="94.03" cy="249.69" r="4"/><circle id="楕円形_184" data-name="楕円形 184" class="cls-1" cx="113.84" cy="246.91" r="4"/><circle id="楕円形_185" data-name="楕円形 185" class="cls-1" cx="133.65" cy="244.13" r="4"/><circle id="楕円形_186" data-name="楕円形 186" class="cls-1" cx="153.45" cy="241.34" r="4"/><circle id="楕円形_187" data-name="楕円形 187" class="cls-1" cx="173.26" cy="238.56" r="4"/><circle id="楕円形_188" data-name="楕円形 188" class="cls-1" cx="193.06" cy="235.78" r="4"/><circle id="楕円形_189" data-name="楕円形 189" class="cls-1" cx="212.87" cy="232.99" r="4"/><circle id="楕円形_190" data-name="楕円形 190" class="cls-1" cx="232.67" cy="230.21" r="4"/><circle id="楕円形_191" data-name="楕円形 191" class="cls-1" cx="252.48" cy="227.43" r="4"/><circle id="楕円形_192" data-name="楕円形 192" class="cls-1" cx="272.28" cy="224.64" r="4"/><circle id="楕円形_193" data-name="楕円形 193" class="cls-1" cx="292.09" cy="221.86" r="4"/><circle id="楕円形_194" data-name="楕円形 194" class="cls-1" cx="37.4" cy="277.85" r="4"/><circle id="楕円形_195" data-name="楕円形 195" class="cls-1" cx="57.21" cy="275.07" r="4"/><circle id="楕円形_196" data-name="楕円形 196" class="cls-1" cx="77.01" cy="272.28" r="4"/><circle id="楕円形_197" data-name="楕円形 197" class="cls-1" cx="96.82" cy="269.5" r="4"/><circle id="楕円形_198" data-name="楕円形 198" class="cls-1" cx="116.62" cy="266.72" r="4"/><circle id="楕円形_199" data-name="楕円形 199" class="cls-1" cx="136.43" cy="263.93" r="4"/><circle id="楕円形_200" data-name="楕円形 200" class="cls-1" cx="156.23" cy="261.15" r="4"/><circle id="楕円形_201" data-name="楕円形 201" class="cls-1" cx="176.04" cy="258.37" r="4"/><circle id="楕円形_202" data-name="楕円形 202" class="cls-1" cx="195.84" cy="255.58" r="4"/><circle id="楕円形_203" data-name="楕円形 203" class="cls-1" cx="215.65" cy="252.8" r="4"/><circle id="楕円形_204" data-name="楕円形 204" class="cls-1" cx="235.46" cy="250.02" r="4"/><circle id="楕円形_205" data-name="楕円形 205" class="cls-1" cx="255.26" cy="247.23" r="4"/><circle id="楕円形_206" data-name="楕円形 206" class="cls-1" cx="275.07" cy="244.45" r="4"/><circle id="楕円形_207" data-name="楕円形 207" class="cls-1" cx="294.87" cy="241.66" r="4"/><circle id="楕円形_208" data-name="楕円形 208" class="cls-1" cx="40.19" cy="297.66" r="4"/><circle id="楕円形_209" data-name="楕円形 209" class="cls-1" cx="59.99" cy="294.87" r="4"/><circle id="楕円形_210" data-name="楕円形 210" class="cls-1" cx="79.8" cy="292.09" r="4"/><circle id="楕円形_211" data-name="楕円形 211" class="cls-1" cx="99.6" cy="289.3" r="4"/><circle id="楕円形_212" data-name="楕円形 212" class="cls-1" cx="119.41" cy="286.52" r="4"/><circle id="楕円形_213" data-name="楕円形 213" class="cls-1" cx="139.21" cy="283.74" r="4"/><circle id="楕円形_214" data-name="楕円形 214" class="cls-1" cx="159.02" cy="280.95" r="4"/><circle id="楕円形_215" data-name="楕円形 215" class="cls-1" cx="178.82" cy="278.17" r="4"/><circle id="楕円形_216" data-name="楕円形 216" class="cls-1" cx="198.63" cy="275.39" r="4"/><circle id="楕円形_217" data-name="楕円形 217" class="cls-1" cx="218.43" cy="272.6" r="4"/><circle id="楕円形_218" data-name="楕円形 218" class="cls-1" cx="238.24" cy="269.82" r="4"/><circle id="楕円形_219" data-name="楕円形 219" class="cls-1" cx="258.04" cy="267.04" r="4"/><circle id="楕円形_220" data-name="楕円形 220" class="cls-1" cx="277.85" cy="264.25" r="4"/><circle id="楕円形_221" data-name="楕円形 221" class="cls-1" cx="297.66" cy="261.47" r="4"/></g></g></g></svg>